# xmcd
#
# Track frame offsets:
#	150
#	18430
#	37315
#	58700
#	78160
#	101640
#	121067
#	139810
#	158010
#	186980
#
# Disc length: 2807 seconds
#
# Revision: 0
# Processed by: cddbd v1.5.2PL0 Copyright (c) Steve Scherf et al.
# Submitted via: EasyCDDAExtractor 16.0.9.1
#
DISCID=810af50a
DTITLE=Tuấn Ngọc - KH60: Đêm Cuối Cùng
DYEAR=2002
DGENRE=Pop
TTITLE0=Tuấn Ngọc - Tóc Ngang Bờ Vai
TTITLE1=Tuấn Ngọc - Bài Không Tên Số 4
TTITLE2=Tuấn Ngọc - Em Đến Thăm Anh Một Chiều Mưa
TTITLE3=Tuấn Ngọc - Đêm Cuối Cùng
TTITLE4=Tuấn Ngọc - Nắng Chiều Rực Rỡ
TTITLE5=Tuấn Ngọc - Bao Giờ Biết Tương Tư
TTITLE6=Tuấn Ngọc and Khánh Hà - Hạ Hồng
TTITLE7=Tuấn Ngọc - Bài Không Tên Số 3
TTITLE8=Tuấn Ngọc - Tôi Còn Yêu
TTITLE9=Tuấn Ngọc - Cây Đàn Bỏ Quên
EXTD=
EXTT0=
EXTT1=
EXTT2=
EXTT3=
EXTT4=
EXTT5=
EXTT6=
EXTT7=
EXTT8=
EXTT9=
PLAYORDER=
